<?xml version="1.0" encoding="UTF-8" standalone="no"?><!DOCTYPE svg PUBLIC "-//W3C//DTD SVG 1.1//EN" "http://www.w3.org/Graphics/SVG/1.1/DTD/svg11.dtd"><svg width="100%" height="100%" viewBox="0 0 1667 771" version="1.1" xmlns="http://www.w3.org/2000/svg" xmlns:xlink="http://www.w3.org/1999/xlink" xml:space="preserve" xmlns:serif="http://www.serif.com/" style="fill-rule:evenodd;clip-rule:evenodd;stroke-linejoin:round;stroke-miterlimit:1.41421;"><g><g><path d="M3.218,321.893c0,33.216 12.395,43.161 38.6,43.161c7.606,0 17.311,-1.045 23.628,-2.689l-3.628,-16.956c-3.978,1.278 -10.878,2.217 -16.028,2.217c-16.372,0 -22.455,-3.044 -22.455,-25.5c0,-22.572 6.083,-24.906 22.455,-24.906c5.15,0 12.045,0.817 16.028,2.217l3.628,-16.605c-6.2,-1.75 -16.028,-2.923 -23.628,-2.923c-26.205,-0.005 -38.6,8.656 -38.6,41.984Zm129.689,41.527l20.822,0c-8.772,-21.288 -20.939,-56.027 -28.655,-81.527l-29.123,0c-9.361,22.927 -22.105,58.716 -28.894,81.527l20.122,0c1.406,-5.027 3.161,-11.227 5.261,-18.011l33.573,0c2.455,6.895 4.911,13.211 6.894,18.011Zm-21.989,-65.15c2.456,8.656 5.967,19.767 9.711,30.878l-23.394,0c3.744,-11.344 7.489,-22.339 10.644,-30.878l3.039,0Zm98.006,31.345c-6.084,-15.322 -14.156,-34.15 -20.939,-47.722l-25.261,0l0,81.522l18.244,0l0,-55.089c5.845,13.094 13.917,34.733 19.067,48.3l14.972,0c5.378,-13.794 13.917,-34.617 20.117,-48.3l0,55.089l18.244,0l0,-81.522l-24.094,0c-6.434,13.45 -14.506,32.283 -20.35,47.722Zm120.683,33.805l20.822,0c-8.772,-21.288 -20.939,-56.027 -28.655,-81.527l-29.123,0c-9.361,22.927 -22.105,58.716 -28.894,81.527l20.122,0c1.4,-5.027 3.156,-11.227 5.261,-18.011l33.573,0c2.455,6.895 4.905,13.211 6.894,18.011Zm-21.989,-65.15c2.456,8.656 5.967,19.767 9.706,30.878l-23.389,0c3.744,-11.344 7.483,-22.339 10.644,-30.878l3.039,0Zm70.633,24.206l0,-24.444l20.356,0c5.144,0 7.95,3.627 7.95,12.516c0,8.539 -3.272,11.928 -8.183,11.928l-20.123,0Zm0,40.944l0,-25.383l26.784,0c15.205,0 22.222,-12.75 22.222,-27.483c0,-16.728 -5.617,-28.656 -22.339,-28.656l-45.494,0l0,81.528l18.827,0l0,-0.006Zm60.45,-41.527c0,33.216 12.395,43.161 38.6,43.161c7.606,0 17.312,-1.045 23.628,-2.689l-3.628,-16.956c-3.972,1.278 -10.877,2.217 -16.022,2.217c-16.372,0 -22.455,-3.044 -22.455,-25.5c0,-22.572 6.083,-24.906 22.455,-24.906c5.145,0 12.05,0.817 16.022,2.217l3.628,-16.605c-6.2,-1.75 -16.022,-2.923 -23.628,-2.923c-26.205,-0.005 -38.6,8.656 -38.6,41.984Zm147.939,41.527c-11.811,-35.444 -20.122,-41.644 -28.777,-44.916c3.627,-3.389 13.1,-15.556 26.666,-36.611l-22.455,0c-10.411,16.839 -22.223,31.811 -28.773,39.061l0,-39.061l-18.827,0l0,81.522l18.827,0l0,-38.011c12.867,1.4 20.589,8.066 31,38.011l22.339,0.005Zm85.25,-81.527l-23.044,0c-10.061,18.6 -21.172,37.544 -32.4,55.905l0,-55.905l-18.483,0l0,81.527l24.677,0c10.528,-17.077 21.056,-35.555 30.645,-53.688l0,53.688l18.6,0l0,-81.527l0.005,0Zm96.245,0l-23.045,0c-10.055,18.6 -21.166,37.544 -32.4,55.905l0,-55.905l-18.483,0l0,81.527l24.683,0c10.523,-17.077 21.056,-35.555 30.645,-53.688l0,53.688l18.6,0l0,-81.527Zm-55.678,-20.35c0,11.461 6.906,16.727 18.361,16.727c11.811,0 18.483,-5.261 18.483,-16.727l-10.994,0c0,5.027 -2.456,6.083 -7.017,6.083c-4.677,0 -7.016,-1.05 -7.016,-6.083l-11.817,0Zm126.194,101.877l-10.061,0c4.206,-5.616 9.356,-13.222 13.1,-19.883c-4.794,-15.205 -18.833,-45.5 -28.661,-61.644l9.589,0c7.956,14.272 18.128,35.211 24.328,52.75c8.772,-17.428 18.478,-37.656 23.628,-52.75l8.766,0c-10.633,27.139 -27.127,60.239 -40.689,81.527Zm63.845,-39.888l43.272,0l0,39.888l8.306,0l0,-81.527l-8.306,0l0,34.039l-43.272,0l0,-34.039l-8.422,0l0,81.527l8.422,0l0,-39.888Zm87.005,30.994c15.673,-24.211 30.412,-48.767 43.273,-72.633l10.066,0l0,81.527l-8.305,0l0,-69.361c-12.867,23.273 -27.484,47.839 -41.995,69.361l-11.461,0l0,-81.527l8.428,0l0,72.633l-0.006,0Zm120.812,1.872l-31.934,0l0,-33.216l31.467,0c8.422,0 11.922,7.255 11.922,17.077c0.006,9.473 -2.8,16.139 -11.455,16.139Zm-1.173,-40.116l-30.761,0l0,-27.378l30.761,0c8.539,0 10.767,5.15 10.767,13.333c0,7.261 -2.344,14.045 -10.767,14.045Zm3.273,3.272c14.505,-1.284 16.138,-8.656 16.138,-18.367c0,-10.178 -3.155,-19.3 -19.416,-19.3l-39.184,0l0,81.522l40.478,0c13.089,0 20.345,-7.833 20.345,-23.039c0.005,-11.111 -2.923,-20.111 -18.361,-20.816Zm97.422,-37.661l0,7.016l-47.372,0l0,27.378l33.572,0l0,7.017l-33.572,0l0,33.1l47.372,0l0,7.022l-55.795,0l0,-81.528l55.795,0l0,-0.005Zm27.466,44.094l0,-37.083l28.423,0c8.772,0 13.327,7.261 13.327,19.305c0,10.411 -4.322,17.778 -13.916,17.778l-27.834,0Zm0,37.433l0,-29.944l28.539,0c16.845,0 22.573,-12.4 22.573,-25.144c0,-14.039 -5.028,-26.439 -23.156,-26.439l-36.378,0l0,81.522l8.422,0.005Zm66.662,-41.527c0,33.216 12.044,43.161 37.311,43.161c7.25,0 16.494,-1.284 22.805,-3.272l-2.689,-7.484c-4.916,1.867 -13.683,3.034 -20.005,3.034c-20.584,0 -28.306,-5.612 -28.306,-35.439c0,-29.945 7.722,-34.384 28.306,-34.384c6.322,0 15.089,1.173 20.005,3.156l2.689,-7.6c-6.316,-1.872 -15.561,-3.156 -22.805,-3.156c-25.267,-0.005 -37.311,8.656 -37.311,41.984Zm86.772,32.633c15.666,-24.211 30.411,-48.767 43.272,-72.633l10.061,0l0,81.527l-8.3,0l0,-69.361c-12.867,23.273 -27.489,47.839 -41.994,69.361l-11.461,0l0,-81.527l8.427,0l0,72.633l-0.005,0Zm106.189,-65.617l28.189,0l0,-7.016l-65.039,0l0,7.016l28.311,0l0,74.511l8.539,0l0,-74.511Zm99.989,-7.016l0,7.016l-47.373,0l0,27.378l33.573,0l0,7.017l-33.573,0l0,33.1l47.373,0l0,7.022l-55.795,0l0,-81.528l55.795,0l0,-0.005Zm44.783,7.016l28.189,0l0,-7.016l-65.034,0l0,7.016l28.312,0l0,74.511l8.533,0l0,-74.511Z" style="fill-rule:nonzero;"/></g></g></svg>