<?xml version="1.0" encoding="utf-8"?>
<!-- Generator: Adobe Illustrator 15.1.0, SVG Export Plug-In . SVG Version: 6.00 Build 0)  -->
<!DOCTYPE svg PUBLIC "-//W3C//DTD SVG 1.1//EN" "http://www.w3.org/Graphics/SVG/1.1/DTD/svg11.dtd">
<svg version="1.1" id="_x31_" xmlns="http://www.w3.org/2000/svg" xmlns:xlink="http://www.w3.org/1999/xlink" x="0px" y="0px"
	 width="300px" height="138.683px" viewBox="269 228.296 300 138.683" enable-background="new 269 228.296 300 138.683"
	 xml:space="preserve">
<g>
	<g>
		<path d="M357.864,359.962c-0.529-0.15-1.436-0.289-2.407-0.289c-1.31,0-1.688,0.252-1.688,0.856c0,0.555,0.252,0.755,1.776,0.921
			c2.004,0.225,2.898,0.993,2.898,2.67c0,2.118-1.104,2.827-3.703,2.859h-0.363c-1.001-0.017-2.007-0.177-2.674-0.416l0.416-1.738
			c0.568,0.151,1.449,0.29,2.407,0.29c1.31,0,1.725-0.188,1.725-0.856c0-0.555-0.239-0.819-1.888-0.995
			c-1.88-0.202-2.761-0.82-2.761-2.445c0-2.181,1.261-3.012,3.867-3.012c1.06,0,2.118,0.165,2.811,0.416L357.864,359.962z"/>
		<path d="M363.649,359.785c-0.34,0.92-0.745,2.104-1.147,3.327h2.521c-0.403-1.199-0.781-2.395-1.045-3.327H363.649
			L363.649,359.785z M365.601,364.862h-3.617c-0.226,0.731-0.415,1.398-0.566,1.941h-2.168c0.732-2.458,2.104-6.313,3.112-8.783
			h3.139c0.83,2.747,2.14,6.489,3.085,8.783h-2.243C366.13,366.287,365.865,365.605,365.601,364.862z"/>
		<path d="M377.042,358.02h2.596v8.784h-1.966v-5.936c-0.668,1.474-1.587,3.715-2.166,5.205h-1.614
			c-0.555-1.463-1.425-3.793-2.053-5.205v5.936h-1.966v-8.784h2.722c0.73,1.462,1.6,3.491,2.255,5.141
			C375.481,361.499,376.35,359.47,377.042,358.02z"/>
		<path d="M385.409,359.785c-0.342,0.92-0.745,2.104-1.148,3.327h2.521c-0.403-1.199-0.781-2.395-1.045-3.327H385.409
			L385.409,359.785z M387.361,364.862h-3.616c-0.227,0.731-0.416,1.398-0.566,1.941h-2.167c0.732-2.458,2.104-6.313,3.112-8.783
			h3.137c0.832,2.747,2.142,6.489,3.087,8.783h-2.244C387.89,366.287,387.625,365.605,387.361,364.862z"/>
		<path d="M393.662,362.003h2.255c0.442,0,0.77-0.313,0.77-1.096c0-0.793-0.29-1.159-0.745-1.159h-2.279L393.662,362.003
			L393.662,362.003z M399.634,366.803h-2.532c-1.361-2.395-1.991-3.138-2.533-3.138h-0.907v3.138h-2.029v-8.783h4.901
			c1.802,0,2.407,1.123,2.407,2.571c0,1.259-0.529,2.356-2.191,2.443C397.342,363.251,397.996,364.044,399.634,366.803z"/>
		<path d="M404.917,359.785c-0.341,0.92-0.744,2.104-1.147,3.327h2.52c-0.403-1.199-0.78-2.395-1.045-3.327H404.917L404.917,359.785
			z M406.869,364.862h-3.616c-0.227,0.731-0.415,1.398-0.567,1.941h-2.167c0.732-2.458,2.105-6.313,3.112-8.783h3.138
			c0.832,2.747,2.141,6.489,3.087,8.783h-2.243C407.398,366.287,407.134,365.605,406.869,364.862z"/>
		<path d="M425.245,363.754c0,2.616-1.196,3.201-3.398,3.225h-0.282c-2.181-0.023-3.4-0.608-3.4-3.225v-5.733h0.919v5.746
			c0,2.053,0.906,2.419,2.633,2.419c1.738,0,2.622-0.415,2.622-2.419v-5.746h0.905L425.245,363.754L425.245,363.754z"/>
		<path d="M428.731,366.803h-0.907v-8.783h1.235c1.562,2.319,3.111,4.928,4.497,7.436v-7.436h0.92v8.783h-1.083
			c-1.387-2.571-2.974-5.255-4.662-7.862V366.803z"/>
		<rect x="437.144" y="358.02" width="0.906" height="8.784"/>
		<path d="M446.755,358.02h0.906c-0.97,2.937-2.04,5.848-3.313,8.784h-1.197c-0.932-2.949-2.19-6.353-3.3-8.784h1.033
			c0.982,2.357,2.065,5.293,2.911,8.09C444.967,363.363,445.885,360.767,446.755,358.02z"/>
		<polygon points="455.54,358.02 455.54,358.776 450.438,358.776 450.438,361.725 454.052,361.725 454.052,362.481 450.438,362.481 
			450.438,366.047 455.54,366.047 455.54,366.804 449.53,366.804 449.53,358.02 		"/>
		<path d="M458.433,358.776v3.428h2.947c1.034,0,1.551-0.643,1.551-1.649c0-1.147-0.529-1.778-1.488-1.778H458.433L458.433,358.776z
			 M461.443,358.02c1.954,0,2.495,1.199,2.495,2.547c0,1.233-0.604,2.318-2.533,2.318c0.632,0.213,1.74,1.698,3.075,3.917h-1.133
			c-1.398-2.456-2.558-3.804-3.214-3.804h-1.701v3.804h-0.906v-8.782H461.443z"/>
		<path d="M469.612,358.627c-1.562,0-2.559,0.364-2.559,1.725c0,0.882,0.494,1.388,2.231,1.512c2.103,0.165,3.037,0.921,3.037,2.547
			c0,1.836-1.379,2.547-3.466,2.569h-0.174c-0.771-0.009-1.761-0.145-2.421-0.353l0.252-0.807c0.541,0.201,1.538,0.328,2.23,0.328
			c1.549,0,2.621-0.365,2.621-1.728c0-0.869-0.478-1.573-2.218-1.7c-2.104-0.15-3.061-0.73-3.061-2.344
			c0-1.876,1.373-2.571,3.514-2.571c0.771,0,1.738,0.141,2.42,0.342l-0.252,0.818C471.363,358.764,470.329,358.627,469.612,358.627z
			"/>
		<rect x="474.508" y="358.02" width="0.906" height="8.784"/>
		<polygon points="481.182,366.803 480.263,366.803 480.263,358.778 477.214,358.778 477.214,358.02 484.22,358.02 484.22,358.778 
			481.182,358.778 		"/>
		<path d="M489.728,366.803h-0.922v-4.223c-0.995-1.459-2.128-2.972-3.426-4.561h1.146c0.982,1.209,1.952,2.545,2.81,3.845
			c0.97-1.224,1.928-2.559,2.772-3.845h1.045c-1.097,1.563-2.23,3.102-3.427,4.561L489.728,366.803L489.728,366.803z"/>
		<path d="M269,339.239c0,5.979,2.231,7.769,6.948,7.769c1.369,0,3.116-0.188,4.253-0.484l-0.653-3.052
			c-0.716,0.23-1.958,0.399-2.885,0.399c-2.947,0-4.042-0.548-4.042-4.59c0-4.063,1.095-4.483,4.042-4.483
			c0.927,0,2.168,0.147,2.885,0.399l0.653-2.989c-1.116-0.315-2.885-0.526-4.253-0.526C271.231,331.681,269,333.24,269,339.239
			L269,339.239z M292.344,346.714h3.748c-1.579-3.832-3.769-10.085-5.158-14.675h-5.242c-1.685,4.127-3.979,10.569-5.201,14.675
			h3.622c0.253-0.905,0.569-2.021,0.947-3.242h6.043C291.545,344.713,291.987,345.85,292.344,346.714L292.344,346.714z
			 M288.386,334.987c0.442,1.558,1.074,3.558,1.748,5.558h-4.211c0.674-2.042,1.348-4.021,1.916-5.558H288.386L288.386,334.987z
			 M306.027,340.629c-1.095-2.758-2.548-6.147-3.769-8.59h-4.547v14.674h3.284v-9.916c1.052,2.357,2.505,6.252,3.432,8.694h2.695
			c0.968-2.483,2.505-6.231,3.621-8.694v9.916h3.284v-14.674h-4.337C308.532,334.46,307.079,337.85,306.027,340.629L306.027,340.629
			z M327.75,346.714h3.748c-1.579-3.832-3.769-10.085-5.158-14.675h-5.242c-1.685,4.127-3.979,10.569-5.201,14.675h3.622
			c0.252-0.905,0.568-2.021,0.947-3.242h6.043C326.951,344.713,327.392,345.85,327.75,346.714L327.75,346.714z M323.792,334.987
			c0.442,1.558,1.074,3.558,1.747,5.558h-4.21c0.674-2.042,1.347-4.021,1.916-5.558H323.792L323.792,334.987z M336.506,339.344v-4.4
			h3.664c0.926,0,1.431,0.653,1.431,2.253c0,1.537-0.589,2.147-1.473,2.147H336.506L336.506,339.344z M336.506,346.714v-4.569h4.821
			c2.737,0,4-2.295,4-4.947c0-3.011-1.011-5.158-4.021-5.158h-8.189v14.675H336.506L336.506,346.714z M347.387,339.239
			c0,5.979,2.231,7.769,6.948,7.769c1.369,0,3.116-0.188,4.253-0.484l-0.653-3.052c-0.715,0.23-1.958,0.399-2.884,0.399
			c-2.947,0-4.042-0.548-4.042-4.59c0-4.063,1.095-4.483,4.042-4.483c0.926,0,2.169,0.147,2.884,0.399l0.653-2.989
			c-1.116-0.315-2.884-0.526-4.253-0.526C349.618,331.681,347.387,333.24,347.387,339.239L347.387,339.239z M374.016,346.714
			c-2.126-6.38-3.622-7.496-5.18-8.085c0.653-0.61,2.358-2.8,4.8-6.59h-4.042c-1.874,3.031-4,5.726-5.179,7.031v-7.031h-3.389
			v14.674h3.389v-6.842c2.316,0.252,3.706,1.452,5.58,6.842L374.016,346.714L374.016,346.714z M389.361,332.039h-4.148
			c-1.811,3.348-3.811,6.758-5.832,10.063v-10.063h-3.327v14.675h4.442c1.895-3.074,3.79-6.4,5.516-9.664v9.664h3.348V332.039
			L389.361,332.039z M406.685,332.039h-4.148c-1.81,3.348-3.81,6.758-5.832,10.063v-10.063h-3.327v14.675h4.443
			c1.894-3.074,3.79-6.4,5.516-9.664v9.664h3.348L406.685,332.039L406.685,332.039z M396.663,328.376
			c0,2.063,1.243,3.011,3.305,3.011c2.126,0,3.327-0.947,3.327-3.011h-1.979c0,0.905-0.442,1.095-1.263,1.095
			c-0.842,0-1.263-0.189-1.263-1.095H396.663L396.663,328.376z M419.378,346.714h-1.811c0.757-1.011,1.684-2.38,2.358-3.579
			c-0.863-2.737-3.39-8.19-5.159-11.096h1.726c1.432,2.569,3.263,6.338,4.379,9.495c1.579-3.137,3.326-6.778,4.253-9.495h1.578
			C424.788,336.924,421.819,342.882,419.378,346.714L419.378,346.714z M430.87,339.534h7.789v7.18h1.495v-14.675h-1.495v6.127
			h-7.789v-6.127h-1.516v14.675h1.516V339.534L430.87,339.534z M446.531,345.113c2.821-4.358,5.474-8.778,7.789-13.074h1.812v14.675
			h-1.495v-12.485c-2.316,4.189-4.947,8.611-7.559,12.485h-2.063v-14.675h1.517V345.113L446.531,345.113z M468.277,345.45h-5.748
			v-5.979h5.664c1.516,0,2.146,1.306,2.146,3.074C470.34,344.25,469.835,345.45,468.277,345.45L468.277,345.45z M468.066,338.229
			h-5.537v-4.928h5.537c1.537,0,1.938,0.927,1.938,2.4C470.004,337.008,469.582,338.229,468.066,338.229L468.066,338.229
			L468.066,338.229z M468.655,338.818c2.611-0.231,2.905-1.558,2.905-3.306c0-1.832-0.568-3.474-3.495-3.474h-7.053v14.674h7.286
			c2.356,0,3.662-1.41,3.662-4.147C471.961,340.565,471.434,338.945,468.655,338.818L468.655,338.818L468.655,338.818z
			 M486.191,332.039v1.263h-8.527v4.928h6.043v1.263h-6.043v5.958h8.527v1.264h-10.043v-14.675H486.191L486.191,332.039z
			 M491.135,339.976v-6.675h5.116c1.579,0,2.399,1.307,2.399,3.475c0,1.874-0.778,3.2-2.505,3.2H491.135L491.135,339.976z
			 M491.135,346.714v-5.39h5.137c3.032,0,4.063-2.232,4.063-4.526c0-2.527-0.905-4.759-4.168-4.759h-6.548v14.674L491.135,346.714
			L491.135,346.714z M503.134,339.239c0,5.979,2.168,7.769,6.716,7.769c1.305,0,2.969-0.231,4.105-0.589l-0.484-1.347
			c-0.885,0.336-2.463,0.546-3.601,0.546c-3.705,0-5.095-1.01-5.095-6.379c0-5.39,1.39-6.189,5.095-6.189
			c1.138,0,2.716,0.211,3.601,0.568l0.484-1.368c-1.137-0.337-2.801-0.568-4.105-0.568
			C505.302,331.681,503.134,333.24,503.134,339.239L503.134,339.239z M518.753,345.113c2.82-4.358,5.474-8.778,7.789-13.074h1.811
			v14.675h-1.494v-12.485c-2.316,4.189-4.948,8.611-7.559,12.485h-2.063v-14.675h1.517V345.113L518.753,345.113z M537.867,333.302
			h5.074v-1.263h-11.707v1.263h5.096v13.412h1.537V333.302L537.867,333.302z M555.865,332.039v1.263h-8.527v4.928h6.043v1.263
			h-6.043v5.958h8.527v1.264h-10.043v-14.675H555.865L555.865,332.039z M563.926,333.302H569v-1.263h-11.706v1.263h5.096v13.412
			h1.536V333.302z"/>
	</g>
	<path d="M415.976,280.595c-0.181,0.005-0.362,0.014-0.544,0.014c-12.641,0-22.886-10.247-22.886-22.886
		c0-12.64,10.245-22.887,22.886-22.887c0.182,0,0.363,0.009,0.544,0.013v-6.537c-0.181-0.003-0.362-0.016-0.544-0.016
		c-16.251,0-29.425,13.176-29.425,29.426c0,16.25,13.173,29.425,29.425,29.425c0.182,0,0.363-0.011,0.544-0.014V280.595
		L415.976,280.595z M415.432,247.915c-5.418,0-9.808,4.391-9.808,9.808c0,5.418,4.391,9.809,9.808,9.809
		c0.185,0,0.364-0.016,0.544-0.027c0.182-0.006,0.362-0.027,0.544-0.027c9.028,0,16.347,7.318,16.347,16.347
		c0,9.029-7.318,16.348-16.347,16.348c-0.183,0-0.363-0.022-0.544-0.028v-6.539c0.18,0.011,0.362,0.028,0.544,0.028
		c5.418,0,9.809-4.391,9.809-9.809c0-5.417-4.392-9.807-9.809-9.807c-0.183,0-0.365,0.015-0.544,0.028
		c-0.183,0.006-0.359,0.027-0.544,0.027c-9.029,0-16.347-7.318-16.347-16.347s7.318-16.347,16.347-16.347
		c0.185,0,0.361,0.021,0.544,0.027v6.539C415.796,247.933,415.617,247.915,415.432,247.915L415.432,247.915z M416.52,254.398
		c16.251,0,29.425,13.175,29.425,29.424c0,16.252-13.174,29.426-29.425,29.426c-0.183,0-0.363-0.012-0.544-0.012v-6.54
		c0.182,0.005,0.362,0.014,0.544,0.014c12.64,0,22.886-10.246,22.886-22.888c0-12.639-10.246-22.885-22.886-22.885
		c-0.183,0-0.363,0.009-0.544,0.014v-6.539C416.157,254.409,416.338,254.398,416.52,254.398z"/>
</g>
</svg>
