<?xml version="1.0" encoding="UTF-8" standalone="no"?>
<!DOCTYPE svg PUBLIC "-//W3C//DTD SVG 1.1//EN" "http://www.w3.org/Graphics/SVG/1.1/DTD/svg11.dtd">
<svg width="100%" height="100%" viewBox="0 0 1667 771" version="1.1" xmlns="http://www.w3.org/2000/svg" xmlns:xlink="http://www.w3.org/1999/xlink" xml:space="preserve" xmlns:serif="http://www.serif.com/" style="fill-rule:evenodd;clip-rule:evenodd;stroke-linejoin:round;stroke-miterlimit:1.41421;">
    <g transform="matrix(0.545491,0,0,0.566475,384.449,150.275)">
        <path d="M3.218,321.893C3.218,355.109 15.613,365.054 41.818,365.054C49.424,365.054 59.129,364.009 65.446,362.365L61.818,345.409C57.84,346.687 50.94,347.626 45.79,347.626C29.418,347.626 23.335,344.582 23.335,322.126C23.335,299.554 29.418,297.22 45.79,297.22C50.94,297.22 57.835,298.037 61.818,299.437L65.446,282.832C59.246,281.082 49.418,279.909 41.818,279.909C31.284,279.907 22.982,281.305 16.819,285.143C7.651,290.853 3.218,301.962 3.218,321.893ZM132.907,363.42L153.729,363.42C144.957,342.132 132.79,307.393 125.074,281.893L95.951,281.893C86.59,304.82 73.846,340.609 67.057,363.42L87.179,363.42C88.585,358.393 90.34,352.193 92.44,345.409L126.013,345.409C128.468,352.304 130.924,358.62 132.907,363.42ZM110.918,298.27C113.374,306.926 116.885,318.037 120.629,329.148L97.235,329.148C100.979,317.804 104.724,306.809 107.879,298.27L110.918,298.27ZM208.924,329.615C202.84,314.293 194.768,295.465 187.985,281.893L162.724,281.893L162.724,363.415L180.968,363.415L180.968,308.326C186.813,321.42 194.885,343.059 200.035,356.626L215.007,356.626C220.385,342.832 228.924,322.009 235.124,308.326L235.124,363.415L253.368,363.415L253.368,281.893L229.274,281.893C222.84,295.343 214.768,314.176 208.924,329.615ZM329.607,363.42L350.429,363.42C341.657,342.132 329.49,307.393 321.774,281.893L292.651,281.893C283.29,304.82 270.546,340.609 263.757,363.42L283.879,363.42C285.279,358.393 287.035,352.193 289.14,345.409L322.713,345.409C325.168,352.304 327.618,358.62 329.607,363.42ZM307.618,298.27C310.074,306.926 313.585,318.037 317.324,329.148L293.935,329.148C297.679,317.804 301.418,306.809 304.579,298.27L307.618,298.27ZM378.251,322.476L378.251,298.032L398.607,298.032C403.751,298.032 406.557,301.659 406.557,310.548C406.557,319.087 403.285,322.476 398.374,322.476L378.251,322.476ZM378.251,363.42L378.251,338.037L405.035,338.037C420.24,338.037 427.257,325.287 427.257,310.554C427.257,293.826 421.64,281.898 404.918,281.898L359.424,281.898L359.424,363.426L378.251,363.426L378.251,363.42ZM438.701,321.893C438.701,355.109 451.096,365.054 477.301,365.054C484.907,365.054 494.613,364.009 500.929,362.365L497.301,345.409C493.329,346.687 486.424,347.626 481.279,347.626C464.907,347.626 458.824,344.582 458.824,322.126C458.824,299.554 464.907,297.22 481.279,297.22C486.424,297.22 493.329,298.037 497.301,299.437L500.929,282.832C494.729,281.082 484.907,279.909 477.301,279.909C451.096,279.904 438.701,288.565 438.701,321.893ZM586.64,363.42C574.829,327.976 566.518,321.776 557.863,318.504C561.49,315.115 570.963,302.948 584.529,281.893L562.074,281.893C551.663,298.732 539.851,313.704 533.301,320.954L533.301,281.893L514.474,281.893L514.474,363.415L533.301,363.415L533.301,325.404C546.168,326.804 553.89,333.47 564.301,363.415L586.64,363.42ZM671.89,281.893L648.846,281.893C638.785,300.493 627.674,319.437 616.446,337.798L616.446,281.893L597.963,281.893L597.963,363.42L622.64,363.42C633.168,346.343 643.696,327.865 653.285,309.732L653.285,363.42L671.885,363.42L671.885,281.893L671.89,281.893ZM768.135,281.893L745.09,281.893C735.035,300.493 723.924,319.437 712.69,337.798L712.69,281.893L694.207,281.893L694.207,363.42L718.89,363.42C729.413,346.343 739.946,327.865 749.535,309.732L749.535,363.42L768.135,363.42L768.135,281.893ZM712.457,261.543C712.457,273.004 719.363,278.27 730.818,278.27C742.629,278.27 749.301,273.009 749.301,261.543L738.307,261.543C738.307,266.57 735.851,267.626 731.29,267.626C726.613,267.626 724.274,266.576 724.274,261.543L712.457,261.543ZM838.651,363.42L828.59,363.42C832.796,357.804 837.946,350.198 841.69,343.537C836.896,328.332 822.857,298.037 813.029,281.893L822.618,281.893C830.574,296.165 840.746,317.104 846.946,334.643C855.718,317.215 865.424,296.987 870.574,281.893L879.34,281.893C868.707,309.032 852.213,342.132 838.651,363.42ZM902.496,323.532L945.768,323.532L945.768,363.42L954.074,363.42L954.074,281.893L945.768,281.893L945.768,315.932L902.496,315.932L902.496,281.893L894.074,281.893L894.074,363.42L902.496,363.42L902.496,323.532ZM989.501,354.526C1005.17,330.315 1019.91,305.759 1032.77,281.893L1042.84,281.893L1042.84,363.42L1034.54,363.42L1034.54,294.059C1021.67,317.332 1007.05,341.898 992.54,363.42L981.079,363.42L981.079,281.893L989.507,281.893L989.507,354.526L989.501,354.526ZM1110.31,356.398L1078.38,356.398L1078.38,323.182L1109.85,323.182C1118.27,323.182 1121.77,330.437 1121.77,340.259C1121.77,349.732 1118.97,356.398 1110.31,356.398ZM1109.14,316.282L1078.38,316.282L1078.38,288.904L1109.14,288.904C1117.68,288.904 1119.91,294.054 1119.91,302.237C1119.91,309.498 1117.56,316.282 1109.14,316.282ZM1112.41,319.554C1126.92,318.27 1128.55,310.898 1128.55,301.187C1128.55,291.009 1125.4,281.887 1109.13,281.887L1069.95,281.887L1069.95,363.409L1110.43,363.409C1123.52,363.409 1130.77,355.576 1130.77,340.37C1130.78,329.259 1127.85,320.259 1112.41,319.554ZM1209.84,281.893L1209.84,288.909L1162.46,288.909L1162.46,316.287L1196.04,316.287L1196.04,323.304L1162.46,323.304L1162.46,356.404L1209.84,356.404L1209.84,363.426L1154.04,363.426L1154.04,281.898L1209.84,281.898L1209.84,281.893ZM1237.3,325.987L1237.3,288.904L1265.72,288.904C1274.5,288.904 1279.05,296.165 1279.05,308.209C1279.05,318.62 1274.73,325.987 1265.13,325.987L1237.3,325.987ZM1237.3,363.42L1237.3,333.476L1265.84,333.476C1282.68,333.476 1288.41,321.076 1288.41,308.332C1288.41,294.293 1283.38,281.893 1265.26,281.893L1228.88,281.893L1228.88,363.415L1237.3,363.42ZM1303.96,321.893C1303.96,355.109 1316.01,365.054 1341.27,365.054C1348.52,365.054 1357.77,363.77 1364.08,361.782L1361.39,354.298C1356.47,356.165 1347.71,357.332 1341.38,357.332C1320.8,357.332 1313.08,351.72 1313.08,321.893C1313.08,291.948 1320.8,287.509 1341.38,287.509C1347.71,287.509 1356.47,288.682 1361.39,290.665L1364.08,283.065C1357.76,281.193 1348.52,279.909 1341.27,279.909C1316.01,279.904 1303.96,288.565 1303.96,321.893ZM1390.74,354.526C1406.4,330.315 1421.15,305.759 1434.01,281.893L1444.07,281.893L1444.07,363.42L1435.77,363.42L1435.77,294.059C1422.9,317.332 1408.28,341.898 1393.77,363.42L1382.31,363.42L1382.31,281.893L1390.74,281.893L1390.74,354.526L1390.74,354.526ZM1496.92,288.909L1525.11,288.909L1525.11,281.893L1460.07,281.893L1460.07,288.909L1488.38,288.909L1488.38,363.42L1496.92,363.42L1496.92,288.909ZM1596.91,281.893L1596.91,288.909L1549.54,288.909L1549.54,316.287L1583.11,316.287L1583.11,323.304L1549.54,323.304L1549.54,356.404L1596.91,356.404L1596.91,363.426L1541.12,363.426L1541.12,281.898L1596.91,281.898L1596.91,281.893ZM1641.7,288.909L1669.88,288.909L1669.88,281.893L1604.85,281.893L1604.85,288.909L1633.16,288.909L1633.16,363.42L1641.7,363.42L1641.7,288.909Z" style="fill:rgb(0,24,146);fill-rule:nonzero;"/>
    </g>
</svg>
